<svg width="73" height="76" viewBox="0 0 73 76" fill="none" xmlns="http://www.w3.org/2000/svg">
<path d="M2.48 57H5.86V71H2.48V57ZM4.6 59.78V57H7.34C8.52667 57 9.52 57.1867 10.32 57.56C11.1333 57.92 11.7467 58.44 12.16 59.12C12.5733 59.8 12.78 60.62 12.78 61.58C12.78 62.5133 12.5733 63.3267 12.16 64.02C11.7467 64.7 11.1333 65.2267 10.32 65.6C9.52 65.96 8.52667 66.14 7.34 66.14H4.6V63.36H7.34C8.02 63.36 8.55333 63.2067 8.94 62.9C9.32667 62.5933 9.52 62.1533 9.52 61.58C9.52 60.9933 9.32667 60.5467 8.94 60.24C8.55333 59.9333 8.02 59.78 7.34 59.78H4.6ZM18.7155 71.2C17.6488 71.2 16.7221 71.0067 15.9355 70.62C15.1621 70.22 14.5621 69.66 14.1355 68.94C13.7088 68.22 13.4955 67.3733 13.4955 66.4C13.4955 65.4133 13.7021 64.56 14.1155 63.84C14.5288 63.12 15.1221 62.5667 15.8955 62.18C16.6821 61.7933 17.6088 61.6 18.6755 61.6C19.7421 61.6 20.6421 61.7867 21.3755 62.16C22.1088 62.52 22.6688 63.0467 23.0555 63.74C23.4421 64.4333 23.6355 65.2733 23.6355 66.26C23.6355 66.4067 23.6355 66.5533 23.6355 66.7C23.6355 66.8333 23.6221 66.9467 23.5955 67.04H15.1955V65.36H20.8755L20.1555 66.28C20.2221 66.1867 20.2755 66.0733 20.3155 65.94C20.3688 65.7933 20.3955 65.6733 20.3955 65.58C20.3955 65.18 20.3221 64.8333 20.1755 64.54C20.0288 64.2467 19.8221 64.02 19.5555 63.86C19.2888 63.7 18.9755 63.62 18.6155 63.62C18.1621 63.62 17.7821 63.72 17.4755 63.92C17.1688 64.12 16.9355 64.4267 16.7755 64.84C16.6288 65.24 16.5488 65.7467 16.5355 66.36C16.5355 66.92 16.6155 67.4 16.7755 67.8C16.9355 68.2 17.1755 68.5067 17.4955 68.72C17.8155 68.92 18.2088 69.02 18.6755 69.02C19.2088 69.02 19.6621 68.92 20.0355 68.72C20.4221 68.52 20.7288 68.22 20.9555 67.82L23.6555 68.48C23.1755 69.3867 22.5221 70.0667 21.6955 70.52C20.8821 70.9733 19.8888 71.2 18.7155 71.2ZM24.4203 61.8H30.5803V64.3H24.4203V61.8ZM26.0403 58.6H28.9403V71H26.0403V58.6ZM35.7675 63.86L34.9275 71H31.3675L33.6275 56.3L39.5875 64.84L45.5675 56.3L47.8275 71H44.2675L43.4275 63.86L39.5875 69.7L35.7675 63.86ZM52.02 68.12C52.02 68.36 52.08 68.5667 52.2 68.74C52.32 68.9 52.48 69.0267 52.68 69.12C52.88 69.2 53.1 69.24 53.34 69.24C53.6867 69.24 54.0067 69.1667 54.3 69.02C54.5933 68.8733 54.8333 68.6533 55.02 68.36C55.2067 68.0667 55.3 67.7067 55.3 67.28L55.62 68.48C55.62 69.0667 55.46 69.5667 55.14 69.98C54.82 70.38 54.4067 70.6867 53.9 70.9C53.3933 71.1 52.8467 71.2 52.26 71.2C51.6733 71.2 51.1267 71.0933 50.62 70.88C50.1267 70.6533 49.7267 70.32 49.42 69.88C49.1267 69.44 48.98 68.9067 48.98 68.28C48.98 67.4 49.2933 66.7067 49.92 66.2C50.5467 65.68 51.4333 65.42 52.58 65.42C53.14 65.42 53.64 65.4733 54.08 65.58C54.5333 65.6867 54.92 65.82 55.24 65.98C55.56 66.14 55.8 66.3067 55.96 66.48V67.82C55.64 67.58 55.2667 67.4 54.84 67.28C54.4267 67.1467 53.9867 67.08 53.52 67.08C53.16 67.08 52.8733 67.12 52.66 67.2C52.4467 67.28 52.2867 67.4 52.18 67.56C52.0733 67.7067 52.02 67.8933 52.02 68.12ZM50.68 64.62L49.66 62.6C50.18 62.3467 50.8067 62.1067 51.54 61.88C52.2733 61.6533 53.0733 61.54 53.94 61.54C54.7533 61.54 55.48 61.66 56.12 61.9C56.76 62.1267 57.2667 62.46 57.64 62.9C58.0133 63.34 58.2 63.88 58.2 64.52V71H55.3V65.2C55.3 64.9733 55.26 64.78 55.18 64.62C55.1133 64.4467 55.0067 64.3 54.86 64.18C54.7133 64.06 54.5267 63.9733 54.3 63.92C54.0867 63.8667 53.84 63.84 53.56 63.84C53.1467 63.84 52.74 63.8867 52.34 63.98C51.9533 64.0733 51.6133 64.1867 51.32 64.32C51.0267 64.44 50.8133 64.54 50.68 64.62ZM63.4613 75.4H60.4413V61.8H63.4613V75.4ZM70.9813 66.4C70.9813 67.4667 70.7679 68.3667 70.3413 69.1C69.9279 69.8333 69.3879 70.3867 68.7213 70.76C68.0679 71.1333 67.3613 71.32 66.6013 71.32C65.8013 71.32 65.1079 71.12 64.5213 70.72C63.9479 70.3067 63.5079 69.7333 63.2013 69C62.8946 68.2533 62.7413 67.3867 62.7413 66.4C62.7413 65.4 62.8946 64.5333 63.2013 63.8C63.5079 63.0667 63.9479 62.5 64.5213 62.1C65.1079 61.6867 65.8013 61.48 66.6013 61.48C67.3613 61.48 68.0679 61.6667 68.7213 62.04C69.3879 62.4133 69.9279 62.9667 70.3413 63.7C70.7679 64.42 70.9813 65.32 70.9813 66.4ZM67.8013 66.4C67.8013 65.92 67.7013 65.5133 67.5013 65.18C67.3013 64.8467 67.0346 64.5933 66.7013 64.42C66.3679 64.2467 66.0013 64.16 65.6013 64.16C65.2546 64.16 64.9146 64.2467 64.5813 64.42C64.2613 64.58 63.9946 64.8267 63.7813 65.16C63.5679 65.4933 63.4613 65.9067 63.4613 66.4C63.4613 66.8933 63.5679 67.3067 63.7813 67.64C63.9946 67.9733 64.2613 68.2267 64.5813 68.4C64.9146 68.56 65.2546 68.64 65.6013 68.64C66.0013 68.64 66.3679 68.5533 66.7013 68.38C67.0346 68.2067 67.3013 67.9533 67.5013 67.62C67.7013 67.2867 67.8013 66.88 67.8013 66.4Z" fill="#FFEDC8"/>
<path d="M40.6304 50.5C45.9637 52.1667 52.1678 50.9251 53.7678 41.7251C55.3678 32.5251 51.1304 25.5 45.6304 24C35.7181 21.2967 15.2678 21.125 17.2678 38.725C18.5533 50.0371 26.4665 50.3374 33.7678 46.8036M33.7678 46.8036C37.8263 44.8394 42.6304 42.5 44.1304 39.5C45.6304 36.5 46.7144 31.4837 41.2678 30.225C38.1304 29.5 35.1304 33 35.1304 33L31.7678 30.725C27.6304 28.5 21.6304 32.725 25.6304 38.725C29.6304 44.725 32.9345 46.4441 33.7678 46.8036Z" stroke="#FFEDC8" stroke-width="5" stroke-linecap="round" stroke-linejoin="round"/>
<path d="M64.6196 24.6206C61.4498 26.4753 58.2681 25.5717 57.17 23.6952C56.072 21.8186 56.8429 18.6022 60.0127 16.7474C63.1825 14.8927 66.3643 15.7963 67.4623 17.6729C68.5603 19.5494 67.7894 22.7658 64.6196 24.6206Z" stroke="#FFEDC8" stroke-width="4" stroke-linejoin="round"/>
<path d="M7.46706 22.2456C10.3349 24.5398 13.614 24.1063 14.9721 22.4085C16.3302 20.7107 16.0331 17.4165 13.1652 15.1224C10.2973 12.8283 7.0183 13.2617 5.66017 14.9595C4.30204 16.6574 4.59918 19.9515 7.46706 22.2456Z" stroke="#FFEDC8" stroke-width="4" stroke-linejoin="round"/>
<path d="M42.1304 8.20855C41.1762 11.755 42.8861 14.5863 44.9856 15.1512C47.0851 15.7161 49.9849 14.1251 50.9391 10.5786C51.8933 7.03221 50.1834 4.20091 48.0839 3.63601C45.9844 3.07111 43.0846 4.66212 42.1304 8.20855Z" stroke="#FFEDC8" stroke-width="4" stroke-linejoin="round"/>
<path d="M30.9392 8.20855C31.8934 11.755 30.1835 14.5863 28.084 15.1512C25.9845 15.7161 23.0847 14.1251 22.1305 10.5786C21.1763 7.03221 22.8862 4.20091 24.9857 3.63601C27.0852 3.07111 29.9849 4.66212 30.9392 8.20855Z" stroke="#FFEDC8" stroke-width="4" stroke-linejoin="round"/>
</svg>
